# xmcd
#
# Track frame offsets:
#	150
#	16455
#	33506
#	50948
#	68871
#	87118
#	101925
#	116525
#	135267
#	145581
#
# Disc length: 2157 seconds
#
# Revision: 0
# Processed by: cddbd v1.5.2PL0 Copyright (c) Steve Scherf et al.
# Submitted via: FairStars CD Ripper 1.90
#
DISCID=88086b0a
DTITLE=Coffey Anderson - Southern Man
DYEAR=2008
DGENRE=Country
TTITLE0=Rock and Roll Sally
TTITLE1=Memphis
TTITLE2=You Gave Me You
TTITLE3=Can I
TTITLE4=Better Today
TTITLE5=Together Babe
TTITLE6=Recovery
TTITLE7=Blinded
TTITLE8=Big Legged Woman
TTITLE9=Southern Man
EXTD=
EXTT0=
EXTT1=
EXTT2=
EXTT3=
EXTT4=
EXTT5=
EXTT6=
EXTT7=
EXTT8=
EXTT9=
PLAYORDER=
